# xmcd
#
# Track frame offsets: 
#        187
#        17285
#        37997
#        57527
#        77070
#        94280
#        112317
#        134995
#
# Disc length: 2027 seconds
#
# Revision: 2
# Processed by: cddbd v1.5.2PL0 Copyright (c) Steve Scherf et al.
# Submitted via: ExactAudioCopyFreeDBPlugin 1.0
#
DISCID=6e07e908
DTITLE=Little Milton - Age Ain't Nothin' But A Number
DYEAR=1983
DGENRE=
TTITLE0=Age Ain't Nothin' But A Number
TTITLE1=Gotta Keep Our Live Alive
TTITLE2=Let It Be Me
TTITLE3=I Wanna Love You
TTITLE4=Don't Leave Me
TTITLE5=Living On The Dark Side Of Love
TTITLE6=Guess How Much I Love You
TTITLE7=Why Are You So Hard To Please
EXTD=Original Master Recording\nMobile Fidelity Sound Lab\n
EXTT0=
EXTT1=
EXTT2=
EXTT3=
EXTT4=
EXTT5=
EXTT6=
EXTT7=
PLAYORDER=
